<svg viewBox="0 0 44 44" fill="none" xmlns="http://www.w3.org/2000/svg">
<path d="M21.8184 42.6582C33.2695 42.6582 42.6367 33.291 42.6367 21.8184C42.6367 10.3672 33.2695 1 21.8184 1C10.3672 1 1 10.3672 1 21.8184C1 33.291 10.3672 42.6582 21.8184 42.6582ZM14.6426 21.7969C14.6426 22.9141 13.6113 24.0098 12.4512 24.0098C11.291 24.0098 10.2598 22.9141 10.2598 21.7969C10.2598 20.5508 11.1621 19.5625 12.4512 19.5625C13.6113 19.5625 14.6426 20.5938 14.6426 21.7969ZM24.0312 21.7969C24.0312 22.9141 23 24.0098 21.8184 24.0098C20.6797 24.0098 19.6484 22.9141 19.6484 21.7969C19.6484 20.5508 20.5508 19.5625 21.8184 19.5625C23 19.5625 24.0312 20.5938 24.0312 21.7969ZM33.3984 21.7969C33.3984 22.9141 32.3672 24.0098 31.207 24.0098C30.0684 24.0098 29.0371 22.9141 29.0371 21.7969C29.0371 20.5508 29.918 19.5625 31.207 19.5625C32.3672 19.5625 33.3984 20.5938 33.3984 21.7969Z" fill="black" stroke="black"/>
</svg>
