<svg viewBox="0 0 44 44" fill="none" xmlns="http://www.w3.org/2000/svg">
<path d="M21.8184 42.6582C33.2695 42.6582 42.6367 33.291 42.6367 21.8184C42.6367 10.3672 33.2695 1 21.8184 1C10.3672 1 1 10.3672 1 21.8184C1 33.291 10.3672 42.6582 21.8184 42.6582ZM21.8184 41.6055C10.9258 41.6055 2.05273 32.7324 2.05273 21.8184C2.05273 10.9258 10.9258 2.05273 21.8184 2.05273C32.7324 2.05273 41.584 10.9258 41.584 21.8184C41.584 32.7324 32.7324 41.6055 21.8184 41.6055ZM14.4062 21.7969C14.4062 20.6367 13.4824 19.8418 12.4297 19.8418C11.3125 19.8418 10.4316 20.5938 10.4316 21.7969C10.4316 22.8496 11.4199 23.752 12.4297 23.752C13.4824 23.752 14.4062 22.8496 14.4062 21.7969ZM23.8164 21.7969C23.8164 20.6367 22.8711 19.8418 21.8184 19.8418C20.7012 19.8418 19.8418 20.5938 19.8418 21.7969C19.8418 22.8496 20.8086 23.752 21.8184 23.752C22.8711 23.752 23.8164 22.8496 23.8164 21.7969ZM33.2051 21.7969C33.2051 20.6367 32.2812 19.8418 31.207 19.8418C30.1113 19.8418 29.2305 20.5938 29.2305 21.7969C29.2305 22.8496 30.2188 23.752 31.207 23.752C32.2812 23.752 33.2051 22.8496 33.2051 21.7969Z" fill="black" stroke="black"/>
</svg>
